<svg width="1440" height="1697" viewBox="0 0 1440 1697" fill="none" xmlns="http://www.w3.org/2000/svg">
    <path
        d="M1033.5 1.38721H1029C1014.37 31.4909 915.5 90.2668 767.5 68.2668C619.5 46.2668 431 101.267 455.481 394.267C466.68 528.3 538.5 547.267 538.5 688.267C538.5 837.627 216.485 924.051 141 944.267C65.515 964.483 29.0998 970.421 -23 969.267V1696.27H1465V397.267C1465 397.267 1241.5 468.267 1033.5 461.267C825.5 454.267 745 414.267 682 369.267C619 324.267 598 202.767 661.5 132.267C723.741 63.1647 772.5 84.2668 848.5 84.2668C959.5 84.2668 1029.71 16.5406 1033.5 1.38721Z"
        fill="url(#paint0_linear_1_77)" stroke="#FF8989" stroke-width="1.09948" />
    <defs>
        <linearGradient id="paint0_linear_1_77" x1="721" y1="1.38721" x2="721" y2="1506.27"
            gradientUnits="userSpaceOnUse">
            <stop stop-color="#FFA394" stop-opacity="0.82" />
            <stop offset="1" stop-color="#FFDCCA" stop-opacity="0.8" />
        </linearGradient>
    </defs>
</svg>