<svg width="458" height="344" viewBox="0 0 458 344" fill="none" xmlns="http://www.w3.org/2000/svg">
    <path
        d="M358.958 58.8406C359.094 58.7636 359.234 58.6665 359.379 58.5505C364.982 54.7216 376.66 47.738 381.806 48.2959C385.245 53.7335 388.582 59.8771 390.704 64.0829C404.846 57.2557 437.331 35.0811 454.136 1L340.608 22.731C339.805 22.7646 339.071 22.8955 338.436 23.1467L340.608 22.731C345.319 22.5335 352.404 25.6853 355.795 27.5547C353.232 34.0885 356.835 51.1344 358.958 58.8406Z"
        fill="white" />
    <path
        d="M454.136 1L338.436 23.1467C342.797 21.422 351.826 25.3667 355.795 27.5547M454.136 1L371.033 36.3405M454.136 1L355.795 27.5547M454.136 1C437.331 35.0811 404.846 57.2557 390.704 64.0829C388.582 59.8771 385.245 53.7335 381.806 48.2959M371.033 36.3405C368.393 43.056 362.283 56.9578 358.958 58.8406M371.033 36.3405C373.542 36.438 377.745 41.8746 381.806 48.2959M358.958 58.8406C356.835 51.1344 353.232 34.0885 355.795 27.5547M358.958 58.8406C364.374 55.0872 376.528 47.7236 381.806 48.2959"
        stroke="#FF9E99" />
    <path
        d="M216.009 189.145C188.304 228.267 123.95 311.715 88.1671 332.532C82.2108 321.169 72.2288 300.561 65.333 282.263C60.7937 285.977 51.0619 289.197 46.7635 290.343C42.4031 283.772 39.6631 273.77 38.002 263.327C33.3089 260.873 17.5125 272.552 10.2009 278.697C9.00409 271.732 26.7786 241.079 35.8155 226.624C47.1378 214.9 160.662 196.753 216.009 189.145Z"
        fill="white" />
    <path
        d="M57.9113 255.832C85.6921 239.242 156.205 202.68 216.009 189.145M57.9113 255.832C58.6075 262.593 61.4913 272.069 65.333 282.263M57.9113 255.832C51.0355 261.25 47.6145 281.097 46.7635 290.343M216.009 189.145C188.304 228.267 123.95 311.715 88.1671 332.532C82.2108 321.169 72.2288 300.561 65.333 282.263M216.009 189.145C160.662 196.753 47.1378 214.9 35.8155 226.624M35.8155 226.624C26.7786 241.079 9.00409 271.732 10.2009 278.697C17.5125 272.552 33.3089 260.873 38.002 263.327M35.8155 226.624C35.4989 235.089 35.817 249.59 38.002 263.327M46.7635 290.343C51.0619 289.197 60.7937 285.977 65.333 282.263M46.7635 290.343C42.4031 283.772 39.6631 273.77 38.002 263.327"
        stroke="#FF8989" />
</svg>