<svg width="457" height="344" viewBox="0 0 1856 964" fill="none" xmlns="http://www.w3.org/2000/svg">
    <path
        d="M358.026 58.8406C358.162 58.7636 358.303 58.6665 358.448 58.5505C364.051 54.7216 375.729 47.738 380.875 48.2959C384.314 53.7335 387.651 59.8771 389.772 64.0829C403.914 57.2557 436.4 35.0811 453.205 1L339.676 22.731C338.874 22.7646 338.14 22.8955 337.505 23.1467L339.676 22.731C344.388 22.5335 351.473 25.6853 354.864 27.5547C352.3 34.0885 355.904 51.1344 358.026 58.8406Z"
        fill="white" />
    <path
        d="M453.205 1L337.505 23.1467C341.866 21.422 350.895 25.3667 354.864 27.5547M453.205 1L370.102 36.3405M453.205 1L354.864 27.5547M453.205 1C436.4 35.0811 403.914 57.2557 389.772 64.0829C387.651 59.8771 384.314 53.7335 380.875 48.2959M370.102 36.3405C367.462 43.056 361.351 56.9578 358.026 58.8406M370.102 36.3405C372.611 36.438 376.813 41.8746 380.875 48.2959M358.026 58.8406C355.904 51.1344 352.3 34.0885 354.864 27.5547M358.026 58.8406C363.443 55.0872 375.596 47.7236 380.875 48.2959"
        stroke="#FF9E99" />
    <path
        d="M215.077 189.145C187.373 228.267 123.019 311.715 87.2357 332.532C81.2794 321.169 71.2974 300.561 64.4016 282.263C59.8623 285.977 50.1306 289.197 45.8321 290.343C41.4717 283.772 38.7317 273.77 37.0706 263.327C32.3775 260.873 16.5811 272.552 9.26949 278.697C8.07269 271.732 25.8472 241.079 34.8841 226.624C46.2064 214.9 159.731 196.753 215.077 189.145Z"
        fill="white" />
    <path
        d="M56.9799 255.832C84.7607 239.242 155.273 202.68 215.077 189.145M56.9799 255.832C57.6761 262.593 60.5599 272.069 64.4016 282.263M56.9799 255.832C50.1041 261.25 46.6831 281.097 45.8321 290.343M215.077 189.145C187.373 228.267 123.019 311.715 87.2357 332.532C81.2794 321.169 71.2974 300.561 64.4016 282.263M215.077 189.145C159.731 196.753 46.2064 214.9 34.8841 226.624M34.8841 226.624C25.8472 241.079 8.07269 271.732 9.26949 278.697C16.5811 272.552 32.3775 260.873 37.0706 263.327M34.8841 226.624C34.5675 235.089 34.8856 249.59 37.0706 263.327M45.8321 290.343C50.1306 289.197 59.8623 285.977 64.4016 282.263M45.8321 290.343C41.4717 283.772 38.7317 273.77 37.0706 263.327"
        stroke="#FF8989" />
</svg>