<svg width="209" height="146" viewBox="0 0 209 146" fill="none" xmlns="http://www.w3.org/2000/svg">
    <path
        d="M207.009 1.14474C179.304 40.2668 114.95 123.715 79.1671 144.532C73.2108 133.169 63.2288 112.561 56.333 94.2633C51.7937 97.9769 42.0619 101.197 37.7635 102.343C33.4031 95.7718 30.6631 85.7702 29.002 75.3268C24.3089 72.8735 8.51246 84.5516 1.20088 90.6973C0.0040857 83.7317 17.7786 53.0794 26.8155 38.624C38.1378 26.8997 151.662 8.75272 207.009 1.14474Z"
        fill="white" />
    <path
        d="M48.9113 67.8315C76.6921 51.2421 147.205 14.6797 207.009 1.14474M48.9113 67.8315C49.6075 74.5928 52.4913 84.0695 56.333 94.2633M48.9113 67.8315C42.0355 73.2504 38.6145 93.0973 37.7635 102.343M207.009 1.14474C179.304 40.2668 114.95 123.715 79.1671 144.532C73.2108 133.169 63.2288 112.561 56.333 94.2633M207.009 1.14474C151.662 8.75272 38.1378 26.8997 26.8155 38.624M26.8155 38.624C17.7786 53.0794 0.00408555 83.7317 1.20088 90.6973C8.51246 84.5516 24.3089 72.8735 29.002 75.3268M26.8155 38.624C26.4989 47.0887 26.817 61.5899 29.002 75.3268M37.7635 102.343C42.0619 101.197 51.7937 97.9769 56.333 94.2633M37.7635 102.343C33.4031 95.7718 30.6631 85.7702 29.002 75.3268"
        stroke="#FF8989" />
</svg>