<svg id="waves" width="1440" height="488" fill="none" xmlns="http://www.w3.org/2000/svg">
    <path id="wave1"
        d="M506.329 191.177c-57.905-82.817-183.788-78.873-229.105 0C243.116 250.54 84.696 291.744 0 259.173V476.5h1440V78.14c-57.7-78.365-229.98-132.117-338.67 12.051-92.63 122.865-244.276 240.635-295.048 105.165-42.957-114.62-162.964-90.264-198.894-34.179-29.53 46.095-43.153 112.818-101.059 30z"
        fill="#FFD6C0" />
    <path id="wave3"
        d="M190.15 279.006C111.12 196.129 4.048 175.08-74.981 240.856c-41.608 34.63-85.335 74.729-136.019 82.862V488h1651V369.102c-58.99 27.431-112.8 15.294-146.09-15.887-108.04-101.179-248.32-155.257-384.847-74.209-50.222 29.813-94.325 82.877-152.96 0-58.635-82.877-186.102-78.931-231.99 0-45.888 78.93-254.934 82.877-333.963 0z"
        fill="#FFDBC8" />
    <path id="wave5"
        d="M407.012 322.649C326.015 201.536 101.922 394.979 0 431.839V476.5h1440V336.782c-7.54 6.912-13.88 15.072-18.5 24.043-23.75 46.161-74.92 82.936-121.49 0-46.57-82.935-147.82-78.986-184.27 0-36.45 78.987-202.494 82.936-265.267 0-62.773-82.935-147.82-103.998-210.593-38.176-62.773 65.822-131.621 151.391-232.868 0z"
        fill="#FED6C1" />
</svg>